<?xml version="1.0" encoding="utf-8"?>
<!-- Generator: Adobe Illustrator 25.1.0, SVG Export Plug-In . SVG Version: 6.00 Build 0)  -->
<svg version="1.1" id="Layer_1" xmlns="http://www.w3.org/2000/svg" xmlns:xlink="http://www.w3.org/1999/xlink" x="0px" y="0px"
	 viewBox="0 0 16 16" style="enable-background:new 0 0 16 16;" xml:space="preserve">
<style type="text/css">
	.st0{fill:#FFFFFF;}
</style>
<path class="st0" d="M8,1.5c-1.8,0-2,0-2.7,0c-0.7,0-1.2,0.1-1.6,0.3C3.3,2,2.9,2.3,2.6,2.6C2.3,2.9,2,3.3,1.8,3.7
	C1.7,4.2,1.6,4.6,1.5,5.3c0,0.7,0,0.9,0,2.7c0,1.8,0,2,0,2.7c0,0.7,0.1,1.2,0.3,1.6C2,12.7,2.2,13,2.6,13.4C3,13.8,3.3,14,3.7,14.2
	c0.4,0.2,0.9,0.3,1.6,0.3c0.7,0,0.9,0,2.7,0s2,0,2.7,0c0.7,0,1.2-0.1,1.6-0.3c0.4-0.2,0.8-0.4,1.2-0.7c0.4-0.4,0.6-0.7,0.7-1.2
	c0.2-0.4,0.3-0.9,0.3-1.6c0-0.7,0-0.9,0-2.7s0-2,0-2.7c0-0.7-0.1-1.2-0.3-1.6c-0.2-0.4-0.4-0.8-0.7-1.2c-0.3-0.3-0.7-0.6-1.2-0.7
	c-0.4-0.2-0.9-0.3-1.6-0.3C10,1.5,9.8,1.5,8,1.5L8,1.5L8,1.5z M7.4,2.7H8c1.7,0,1.9,0,2.6,0c0.6,0,1,0.1,1.2,0.2
	c0.3,0.1,0.5,0.3,0.7,0.5c0.2,0.2,0.4,0.4,0.5,0.7c0.1,0.2,0.2,0.6,0.2,1.2c0,0.7,0,0.9,0,2.6s0,1.9,0,2.6c0,0.6-0.1,1-0.2,1.2
	c-0.1,0.3-0.3,0.5-0.5,0.7c-0.2,0.2-0.4,0.4-0.7,0.5c-0.2,0.1-0.6,0.2-1.2,0.2c-0.7,0-0.9,0-2.6,0s-1.9,0-2.6,0
	c-0.6,0-1-0.1-1.2-0.2c-0.3-0.1-0.5-0.3-0.7-0.5c-0.2-0.2-0.4-0.5-0.5-0.7c-0.1-0.2-0.2-0.6-0.2-1.2c0-0.7,0-0.9,0-2.6
	c0-1.7,0-1.9,0-2.6c0-0.6,0.1-1,0.2-1.2c0.1-0.3,0.3-0.5,0.5-0.7c0.2-0.2,0.4-0.4,0.7-0.5c0.2-0.1,0.6-0.2,1.2-0.2
	C6,2.7,6.2,2.7,7.4,2.7C7.4,2.7,7.4,2.7,7.4,2.7z M11.5,3.8c-0.4,0-0.8,0.3-0.8,0.8c0,0.4,0.3,0.8,0.8,0.8l0,0
	c0.4,0,0.8-0.3,0.8-0.8C12.2,4.1,11.9,3.8,11.5,3.8z M8,4.7c-1.8,0-3.4,1.4-3.4,3.3c0,1.8,1.4,3.4,3.3,3.4c0,0,0.1,0,0.1,0
	c1.8,0,3.3-1.5,3.3-3.4C11.3,6.1,9.8,4.7,8,4.7z M8,5.8c1.2,0,2.2,1,2.2,2.2c0,1.2-1,2.2-2.2,2.2c0,0,0,0,0,0c-1.2,0-2.2-1-2.2-2.2
	S6.8,5.8,8,5.8z"/>
</svg>
