<?xml version="1.0" encoding="utf-8"?>
<!-- Generator: Adobe Illustrator 25.1.0, SVG Export Plug-In . SVG Version: 6.00 Build 0)  -->
<svg version="1.1" id="Capa_1" xmlns="http://www.w3.org/2000/svg" xmlns:xlink="http://www.w3.org/1999/xlink" x="0px" y="0px"
	 viewBox="0 0 16 16" style="enable-background:new 0 0 16 16;" xml:space="preserve">
<style type="text/css">
	.st0{fill:#FFFFFF;}
</style>
<path class="st0" d="M11.8,11.2c-0.1,0-0.2,0-0.2,0c-0.5,0.4-1.1,0.5-1.7,0.5c-0.3,0-0.5-0.1-0.8-0.2c-0.2-0.1-0.3-0.3-0.3-0.4
	c-0.1-0.1,0-0.5,0-1v-3h2.5c0.1,0,0.2-0.1,0.2-0.2V4.8c0-0.1-0.1-0.2-0.2-0.2H8.8V2.1c0-0.1-0.1-0.2-0.2-0.2H6.8
	C6.7,1.9,6.6,2,6.6,2.1c-0.1,0.5-0.2,1-0.4,1.4C6,3.9,5.8,4.2,5.5,4.4C5.2,4.6,4.8,4.8,4.2,5C4.1,5,4,5.1,4,5.2v1.7
	C4,7,4.1,7.1,4.2,7.1h1.4V11c0,0.6,0.1,1,0.2,1.3c0.2,0.4,0.4,0.7,0.7,1s0.7,0.5,1.1,0.6s0.8,0.2,1.3,0.2s1-0.1,1.4-0.2
	c0.4-0.1,0.9-0.3,1.4-0.5c0.1,0,0.1-0.1,0.1-0.2v-1.9C11.9,11.3,11.9,11.2,11.8,11.2z"/>
</svg>
