<?xml version="1.0" encoding="utf-8"?>
<!-- Generator: Adobe Illustrator 25.1.0, SVG Export Plug-In . SVG Version: 6.00 Build 0)  -->
<svg version="1.1" id="Layer_1" xmlns="http://www.w3.org/2000/svg" xmlns:xlink="http://www.w3.org/1999/xlink" x="0px" y="0px"
	 viewBox="0 0 16 16" style="enable-background:new 0 0 16 16;" xml:space="preserve">
<style type="text/css">
	.st0{fill:#FFFFFF;}
</style>
<g id="Layer_2_1_">
	<g id="Section">
		<g id="Footer">
			<g id="Social_Icons">
				<g id="Tweeter">
					<path class="st0" d="M15.4,3.4c-0.6,0.3-1.1,0.4-1.8,0.5c0.6-0.4,1.1-1,1.3-1.7c-0.6,0.4-1.3,0.6-1.9,0.8c-0.6-0.6-1.4-1-2.2-1
						c-1.7,0-3,1.4-3.1,3c0,0.2,0,0.5,0.1,0.7C5.4,5.6,3.1,4.4,1.6,2.5C1.3,3,1.2,3.5,1.2,4c0,1,0.5,2,1.4,2.5c-0.5,0-1-0.1-1.4-0.4
						l0,0c0,1.5,1,2.7,2.5,3C3.3,9.3,3.1,9.3,2.8,9.3c-0.2,0-0.4,0-0.6,0c0.4,1.2,1.5,2.1,2.8,2.1c-1.1,0.9-2.4,1.3-3.8,1.3
						c-0.2,0-0.5,0-0.7,0c1.4,0.9,3,1.3,4.7,1.3c4.8,0,8.7-3.8,8.7-8.6c0,0,0-0.1,0-0.1c0-0.1,0-0.3,0-0.4C14.5,4.5,15,4,15.4,3.4z"
						/>
				</g>
			</g>
		</g>
	</g>
</g>
</svg>
